<svg xmlns="http://www.w3.org/2000/svg" width="24" height="24" fill="none" viewBox="0 0 24 24">
  <path stroke="#fff" stroke-linecap="round" stroke-linejoin="round" stroke-width="1.5" d="M9.877 15.206c-3.844 0-7.127.581-7.127 2.91 0 2.326 3.262 2.93 7.127 2.93 3.844 0 7.127-.583 7.127-2.91s-3.262-2.93-7.127-2.93Zm0-3.32a4.552 4.552 0 0 0 4.568-4.568A4.551 4.551 0 0 0 9.877 2.75a4.552 4.552 0 0 0-4.568 4.568 4.553 4.553 0 0 0 4.568 4.568Z" clip-rule="evenodd"/>
  <path stroke="#fff" stroke-linecap="round" stroke-linejoin="round" stroke-width="1.5" d="M19.204 8.67v4.01m2.046-2.006h-4.09"/>
</svg>
