<svg xmlns="http://www.w3.org/2000/svg" width="24" height="24" fill="none" viewBox="0 0 24 24">
  <path fill="#fff" fill-rule="evenodd" d="M8.013 2H4.976A2.986 2.986 0 0 0 2 4.996V8.06a2.986 2.986 0 0 0 2.976 2.995h3.037a2.986 2.986 0 0 0 2.976-2.995V4.996A2.986 2.986 0 0 0 8.013 2ZM4.976 3.395h3.037c.872 0 1.58.715 1.58 1.6V8.06c0 .884-.708 1.6-1.58 1.6H4.976a1.59 1.59 0 0 1-1.58-1.6V4.996c0-.886.708-1.6 1.58-1.6ZM19.026 2h-3.04a2.986 2.986 0 0 0-2.975 2.996V8.06a2.986 2.986 0 0 0 2.976 2.995h3.038C20.67 11.055 22 9.712 22 8.06V4.996C22 3.343 20.67 2 19.025 2Zm-3.04 1.395h3.04c.87 0 1.579.715 1.579 1.6V8.06c0 .884-.71 1.6-1.58 1.6h-3.038a1.59 1.59 0 0 1-1.58-1.6V4.996c0-.886.708-1.6 1.58-1.6Zm-11.01 9.55h3.037a2.985 2.985 0 0 1 2.976 2.996v3.063A2.986 2.986 0 0 1 8.013 22H4.976A2.986 2.986 0 0 1 2 19.005V15.94a2.986 2.986 0 0 1 2.976-2.996Zm3.037 1.395H4.976a1.59 1.59 0 0 0-1.58 1.601v3.063c0 .886.708 1.6 1.58 1.6h3.037a1.59 1.59 0 0 0 1.58-1.6v-3.063a1.59 1.59 0 0 0-1.58-1.6Zm11.012-1.395h-3.038a2.985 2.985 0 0 0-2.976 2.996v3.063A2.986 2.986 0 0 0 15.987 22h3.038C20.67 22 22 20.657 22 19.005V15.94c0-1.653-1.33-2.996-2.975-2.996Zm-3.038 1.395h3.038c.871 0 1.58.715 1.58 1.601v3.063c0 .886-.71 1.6-1.58 1.6h-3.038a1.59 1.59 0 0 1-1.58-1.6v-3.063a1.59 1.59 0 0 1 1.58-1.6Z" clip-rule="evenodd"/>
</svg>
