<svg xmlns="http://www.w3.org/2000/svg" width="24" height="24" fill="none" viewBox="0 0 24 24">
  <path fill="#fff" fill-rule="evenodd" d="M16.359 2H7.64C4.256 2 2 4.42 2 7.893v8.214C2 19.583 4.25 22 7.641 22h8.718C19.75 22 22 19.583 22 16.107V7.893C22 4.417 19.75 2 16.359 2ZM7.64 3.395h8.718c2.597 0 4.246 1.77 4.246 4.498v8.214c0 2.727-1.649 4.498-4.246 4.498H7.64c-2.597 0-4.246-1.77-4.246-4.498V7.893c0-2.724 1.654-4.498 4.246-4.498Zm5.086 3.784a.698.698 0 0 0-1.39.095v9.435l.007.094a.698.698 0 0 0 1.39-.094V7.274l-.007-.095Zm-4.341 3.053a.698.698 0 0 0-1.39.095v6.382l.007.094a.698.698 0 0 0 1.389-.094v-6.382l-.006-.095Zm7.92 2.77c.353 0 .645.262.691.603l.006.094v3.01a.698.698 0 0 1-1.389.094l-.006-.094v-3.01c0-.385.312-.697.698-.697Z" clip-rule="evenodd"/>
</svg>
