<svg xmlns="http://www.w3.org/2000/svg" width="108" height="15" fill="none" viewBox="0 0 108 15">
  <path fill="#fff" d="M7.694 14.436c-1.188 0-2.208-.204-3.06-.612-.852-.42-1.548-.966-2.088-1.638A7.314 7.314 0 0 1 1.34 9.99a7.582 7.582 0 0 1-.378-2.304V7.29c0-.816.132-1.62.396-2.412A6.576 6.576 0 0 1 2.564 2.7a5.98 5.98 0 0 1 2.07-1.548c.84-.396 1.83-.594 2.97-.594 1.188 0 2.238.222 3.15.666.912.444 1.638 1.062 2.178 1.854.552.78.876 1.698.972 2.754h-2.97a2.81 2.81 0 0 0-.576-1.35c-.3-.372-.69-.66-1.17-.864a3.926 3.926 0 0 0-1.584-.306c-.588 0-1.11.102-1.566.306-.456.204-.84.492-1.152.864-.3.372-.534.816-.702 1.332a5.71 5.71 0 0 0-.234 1.692c0 .612.078 1.176.234 1.692.168.504.408.948.72 1.332.324.372.72.66 1.188.864.468.192 1.002.288 1.602.288.912 0 1.68-.222 2.304-.666.636-.444 1.02-1.056 1.152-1.836h2.952a5.853 5.853 0 0 1-.972 2.646c-.528.792-1.254 1.428-2.178 1.908-.912.468-1.998.702-3.258.702Zm8.33-.342V.954h2.898v13.14h-2.898Zm-1.17-11.016V.954h4.069v2.124h-4.068Zm11.528 11.358c-.864 0-1.632-.132-2.304-.396a5.153 5.153 0 0 1-1.71-1.116 4.864 4.864 0 0 1-1.044-1.602 5.228 5.228 0 0 1-.36-1.926v-.414c0-.684.12-1.332.36-1.944a4.87 4.87 0 0 1 1.08-1.638 5.128 5.128 0 0 1 1.728-1.098c.672-.276 1.422-.414 2.25-.414.852 0 1.608.138 2.268.414.672.264 1.242.63 1.71 1.098a4.87 4.87 0 0 1 1.08 1.638c.252.612.378 1.26.378 1.944v.414c0 .672-.12 1.314-.36 1.926-.24.6-.594 1.134-1.062 1.602-.456.468-1.02.84-1.692 1.116-.672.264-1.446.396-2.322.396Zm0-2.43c.564 0 1.032-.12 1.404-.36.372-.24.654-.576.846-1.008a3.33 3.33 0 0 0 .306-1.44c0-.564-.102-1.056-.306-1.476a2.451 2.451 0 0 0-.882-1.026c-.372-.252-.828-.378-1.368-.378-.528 0-.984.126-1.368.378a2.451 2.451 0 0 0-.882 1.026c-.192.42-.288.912-.288 1.476 0 .528.096 1.008.288 1.44.192.432.48.768.864 1.008s.846.36 1.386.36ZM37.158 14.4c-1.14 0-2.016-.366-2.628-1.098-.612-.744-.918-1.86-.918-3.348V4.23h2.88v5.868c0 .528.15.948.45 1.26.3.312.702.468 1.206.468.516 0 .936-.162 1.26-.486.324-.324.486-.762.486-1.314V4.23h2.88v9.864h-2.286V9.936h.198c0 .996-.132 1.83-.396 2.502-.252.66-.63 1.152-1.134 1.476-.504.324-1.128.486-1.872.486h-.126Zm12.34.018a4.71 4.71 0 0 1-1.908-.378 4.586 4.586 0 0 1-1.476-1.044 4.82 4.82 0 0 1-.972-1.602 5.908 5.908 0 0 1-.324-1.98V9c0-.708.102-1.368.306-1.98a4.904 4.904 0 0 1 .918-1.602 4.169 4.169 0 0 1 1.458-1.08c.564-.264 1.194-.396 1.89-.396.792 0 1.476.174 2.052.522.576.336 1.026.84 1.35 1.512.324.66.504 1.476.54 2.448l-.756-.702V.954h2.898v13.14h-2.286v-4.086h.396c-.036.936-.234 1.734-.594 2.394-.348.66-.822 1.164-1.422 1.512-.6.336-1.29.504-2.07.504Zm.72-2.412c.444 0 .846-.096 1.206-.288.372-.204.666-.498.882-.882.228-.384.342-.846.342-1.386v-.666c0-.528-.114-.972-.342-1.332a2.296 2.296 0 0 0-.9-.828 2.591 2.591 0 0 0-1.206-.288c-.48 0-.912.126-1.296.378-.372.24-.666.576-.882 1.008-.216.42-.324.912-.324 1.476 0 .576.108 1.074.324 1.494.216.42.516.744.9.972a2.49 2.49 0 0 0 1.296.342Zm8.03 2.088V.954h4.068l3.006 7.38h.342l2.97-7.38h4.14v13.14h-2.916V2.88l.414.036-3.474 8.514H63.99l-3.492-8.514.45-.036v11.214h-2.7Zm23.269 0v-2.916h-.486V8.01c0-.504-.12-.882-.36-1.134-.24-.252-.624-.378-1.152-.378a53.757 53.757 0 0 0-2.376.072c-.456.024-.87.048-1.242.072v-2.43c.276-.024.6-.048.972-.072a36.96 36.96 0 0 1 2.268-.072c1.008 0 1.854.144 2.538.432.696.288 1.224.726 1.584 1.314.36.576.54 1.32.54 2.232v6.048h-2.286Zm-3.15.252c-.708 0-1.332-.126-1.872-.378a2.947 2.947 0 0 1-1.242-1.08c-.3-.48-.45-1.05-.45-1.71 0-.72.186-1.308.558-1.764.372-.468.894-.81 1.566-1.026.672-.228 1.446-.342 2.322-.342h2.106v1.602H79.23c-.504 0-.894.126-1.17.378-.264.24-.396.57-.396.99 0 .396.132.72.396.972.276.24.666.36 1.17.36.324 0 .612-.054.864-.162.264-.12.48-.318.648-.594.168-.276.264-.66.288-1.152l.684.72c-.06.684-.228 1.26-.504 1.728a2.69 2.69 0 0 1-1.116 1.08c-.468.252-1.044.378-1.728.378Zm12.361-.126c-.996 0-1.8-.12-2.412-.36a2.536 2.536 0 0 1-1.35-1.242c-.276-.588-.414-1.38-.414-2.376V1.566h2.682v8.784c0 .468.12.828.36 1.08.252.24.606.36 1.062.36h1.458v2.43h-1.386Zm-5.67-7.884V4.23h7.056v2.106h-7.056Zm13.476 8.1c-.84 0-1.584-.144-2.232-.432a4.77 4.77 0 0 1-1.602-1.152 5.532 5.532 0 0 1-.972-1.638 5.587 5.587 0 0 1-.324-1.872v-.36c0-.66.108-1.29.324-1.89a5.245 5.245 0 0 1 .972-1.638c.42-.48.942-.858 1.566-1.134.636-.288 1.356-.432 2.16-.432 1.056 0 1.944.24 2.664.72a4.614 4.614 0 0 1 1.674 1.854c.384.756.576 1.584.576 2.484v.972h-8.73V8.28h6.984l-.936.756c0-.588-.084-1.092-.252-1.512-.168-.42-.42-.738-.756-.954-.324-.228-.732-.342-1.224-.342-.504 0-.93.114-1.278.342-.348.228-.612.564-.792 1.008-.18.432-.27.966-.27 1.602 0 .588.084 1.104.252 1.548.168.432.432.768.792 1.008.36.24.828.36 1.404.36.528 0 .96-.102 1.296-.306.336-.204.564-.456.684-.756h2.646a4.159 4.159 0 0 1-.846 1.764c-.42.516-.948.918-1.584 1.206-.636.288-1.368.432-2.196.432Z"/>
  <path fill="#1A82FF" d="M104.622 14.094v-3.222h3.168v3.222h-3.168Z"/>
</svg>
