<svg xmlns="http://www.w3.org/2000/svg" width="396" height="53" fill="none" viewBox="0 0 396 53">
  <path fill="#fff" d="M25.74 52.264c-4.39 0-8.16-.754-11.31-2.262-3.148-1.552-5.72-3.57-7.716-6.053-1.995-2.528-3.481-5.233-4.457-8.116C1.327 32.906.86 30.068.86 27.318v-1.463c0-3.016.488-5.987 1.464-8.914A24.304 24.304 0 0 1 6.78 8.89c2.04-2.394 4.59-4.301 7.65-5.72C17.535 1.707 21.194.976 25.407.976c4.39 0 8.27.82 11.641 2.461 3.37 1.64 6.054 3.925 8.05 6.852 2.04 2.882 3.237 6.275 3.592 10.178H37.714c-.311-1.952-1.02-3.615-2.13-4.99-1.108-1.374-2.55-2.439-4.323-3.193-1.73-.754-3.681-1.13-5.854-1.13s-4.102.376-5.787 1.13a11.721 11.721 0 0 0-4.258 3.193c-1.108 1.375-1.973 3.016-2.594 4.923-.577 1.863-.865 3.947-.865 6.253 0 2.262.288 4.346.865 6.253.62 1.863 1.508 3.504 2.66 4.923 1.198 1.374 2.662 2.439 4.391 3.193 1.73.71 3.703 1.064 5.92 1.064 3.371 0 6.21-.82 8.515-2.461 2.35-1.641 3.77-3.903 4.258-6.785h10.91a21.63 21.63 0 0 1-3.593 9.778c-1.951 2.927-4.634 5.278-8.049 7.052-3.37 1.73-7.384 2.594-12.04 2.594ZM56.526 51V2.44h10.71V51h-10.71Zm-4.324-40.711v-7.85h15.034v7.85H52.202Zm42.603 41.975c-3.193 0-6.032-.488-8.515-1.464-2.484-1.02-4.59-2.394-6.32-4.124a17.978 17.978 0 0 1-3.858-5.92 19.324 19.324 0 0 1-1.33-7.118v-1.53c0-2.528.443-4.923 1.33-7.184a17.998 17.998 0 0 1 3.991-6.054c1.774-1.73 3.903-3.082 6.387-4.058 2.483-1.02 5.255-1.53 8.315-1.53 3.148 0 5.942.51 8.381 1.53 2.484.976 4.59 2.328 6.32 4.058a17.986 17.986 0 0 1 3.991 6.053c.932 2.262 1.397 4.657 1.397 7.185v1.53c0 2.483-.443 4.856-1.33 7.118a17.483 17.483 0 0 1-3.925 5.92c-1.685 1.73-3.77 3.104-6.253 4.124-2.483.976-5.344 1.464-8.581 1.464Zm0-8.98c2.084 0 3.814-.444 5.188-1.331 1.375-.887 2.417-2.129 3.127-3.725.754-1.597 1.131-3.37 1.131-5.322 0-2.084-.377-3.902-1.131-5.455-.754-1.596-1.841-2.86-3.26-3.791-1.374-.932-3.06-1.397-5.055-1.397-1.952 0-3.637.465-5.056 1.397-1.42.93-2.506 2.195-3.26 3.791-.71 1.552-1.064 3.37-1.064 5.455 0 1.951.355 3.725 1.065 5.322.71 1.596 1.773 2.838 3.193 3.725 1.419.887 3.126 1.33 5.122 1.33Zm39.824 8.847c-4.213 0-7.451-1.353-9.712-4.058-2.262-2.75-3.393-6.874-3.393-12.373V14.546h10.644v21.686c0 1.952.554 3.504 1.663 4.657 1.108 1.153 2.594 1.73 4.457 1.73 1.907 0 3.459-.6 4.656-1.797 1.197-1.197 1.796-2.816 1.796-4.856v-21.42h10.644V51h-8.449V35.633h.732c0 3.681-.488 6.764-1.463 9.247-.932 2.44-2.329 4.257-4.191 5.455-1.863 1.197-4.169 1.796-6.918 1.796h-.466Zm45.603.066c-2.573 0-4.923-.465-7.052-1.397a16.949 16.949 0 0 1-5.454-3.858c-1.553-1.685-2.75-3.659-3.593-5.92-.798-2.262-1.197-4.701-1.197-7.318v-1.53c0-2.616.377-5.055 1.131-7.317.798-2.262 1.929-4.235 3.392-5.92a15.406 15.406 0 0 1 5.389-3.992c2.084-.975 4.412-1.463 6.984-1.463 2.927 0 5.455.643 7.584 1.929 2.129 1.242 3.792 3.104 4.989 5.588 1.197 2.439 1.863 5.454 1.996 9.047l-2.794-2.595V2.44h10.71V51h-8.448V35.9h1.463c-.133 3.459-.865 6.408-2.195 8.847-1.286 2.44-3.038 4.302-5.255 5.588-2.218 1.242-4.768 1.862-7.65 1.862Zm2.66-8.914c1.641 0 3.127-.354 4.457-1.064 1.375-.754 2.462-1.84 3.26-3.26.843-1.419 1.264-3.126 1.264-5.122v-2.46c0-1.952-.421-3.593-1.264-4.924a8.485 8.485 0 0 0-3.326-3.06 9.577 9.577 0 0 0-4.457-1.064c-1.774 0-3.37.466-4.79 1.397-1.374.887-2.461 2.129-3.259 3.725-.798 1.552-1.198 3.37-1.198 5.455 0 2.129.4 3.97 1.198 5.521.798 1.553 1.907 2.75 3.326 3.593 1.419.842 3.016 1.263 4.789 1.263ZM212.569 51V2.44h15.034l11.11 27.273h1.263l10.977-27.274h15.3V51h-10.777V9.557l1.53.133-12.839 31.465H233.79L220.885 9.69l1.663-.133V51h-9.979Zm85.993 0V40.224h-1.796V28.516c0-1.863-.443-3.26-1.33-4.191s-2.306-1.397-4.258-1.397c-.975 0-2.261.022-3.858.066-1.596.045-3.237.111-4.922.2a389.21 389.21 0 0 0-4.59.266v-8.98c1.02-.09 2.217-.178 3.592-.267a136.754 136.754 0 0 1 8.381-.266c3.726 0 6.852.533 9.38 1.597 2.572 1.064 4.524 2.683 5.854 4.856 1.33 2.129 1.996 4.878 1.996 8.249V51h-8.449Zm-11.641.931c-2.616 0-4.923-.465-6.918-1.397-1.952-.931-3.482-2.261-4.59-3.991-1.109-1.774-1.663-3.88-1.663-6.32 0-2.66.687-4.833 2.062-6.519 1.375-1.73 3.304-2.993 5.787-3.791 2.484-.843 5.344-1.264 8.582-1.264h7.783v5.92h-7.85c-1.863 0-3.304.466-4.324 1.397-.975.887-1.463 2.107-1.463 3.659 0 1.463.488 2.66 1.463 3.592 1.02.887 2.461 1.33 4.324 1.33 1.197 0 2.262-.2 3.193-.598.976-.444 1.774-1.175 2.395-2.195.621-1.02.976-2.44 1.064-4.258l2.528 2.661c-.222 2.528-.843 4.657-1.863 6.386a9.934 9.934 0 0 1-4.124 3.991c-1.729.932-3.858 1.397-6.386 1.397Zm45.684-.465c-3.681 0-6.652-.444-8.914-1.33-2.262-.932-3.925-2.462-4.989-4.59-1.02-2.174-1.53-5.1-1.53-8.782V4.701h9.912v32.462c0 1.73.443 3.06 1.33 3.992.931.887 2.24 1.33 3.925 1.33h5.388v8.98h-5.122ZM311.65 22.329v-7.783h26.077v7.783H311.65Zm49.801 29.935c-3.104 0-5.854-.532-8.248-1.597-2.351-1.064-4.324-2.483-5.921-4.257a20.457 20.457 0 0 1-3.592-6.053 20.652 20.652 0 0 1-1.197-6.919v-1.33c0-2.44.399-4.768 1.197-6.985a19.394 19.394 0 0 1 3.592-6.053c1.552-1.774 3.482-3.171 5.788-4.191 2.35-1.065 5.011-1.597 7.982-1.597 3.903 0 7.185.887 9.845 2.661 2.706 1.73 4.768 4.013 6.187 6.852 1.419 2.794 2.129 5.854 2.129 9.18v3.592H346.95v-6.053h25.81l-3.459 2.793c0-2.173-.31-4.035-.931-5.587-.621-1.553-1.553-2.728-2.794-3.526-1.198-.843-2.705-1.264-4.524-1.264-1.862 0-3.437.421-4.723 1.264s-2.262 2.084-2.927 3.725c-.665 1.597-.998 3.57-.998 5.92 0 2.174.311 4.08.932 5.721.621 1.597 1.596 2.839 2.927 3.726 1.33.887 3.06 1.33 5.188 1.33 1.952 0 3.548-.377 4.79-1.13 1.242-.755 2.084-1.686 2.528-2.795h9.778a15.368 15.368 0 0 1-3.126 6.52c-1.552 1.906-3.504 3.392-5.854 4.456-2.35 1.065-5.056 1.597-8.116 1.597Z"/>
  <path fill="#1A82FF" d="M383.953 51V39.093h11.708V51h-11.708Z"/>
</svg>
