<svg xmlns="http://www.w3.org/2000/svg" width="48" height="48" fill="none" viewBox="0 0 48 48">
  <mask id="a" width="46" height="46" x="1" y="1" maskUnits="userSpaceOnUse" style="mask-type:luminance">
    <path fill="#fff" d="M1 1h45.188v45.188H1V1Z"/>
  </mask>
  <g mask="url(#a)">
    <mask id="b" width="46" height="46" x="1" y="1" maskUnits="userSpaceOnUse" style="mask-type:luminance">
      <path fill="#fff" d="M23.594 1C11.116 1 1 11.116 1 23.594c0 12.479 10.116 22.594 22.594 22.594 12.479 0 22.594-10.115 22.594-22.594C46.188 11.116 36.073 1 23.594 1Z"/>
    </mask>
    <g mask="url(#b)">
      <path fill="#2E6EA6" d="M1 1h45.188v45.188H1V1Z"/>
    </g>
  </g>
  <mask id="c" width="45" height="45" x="1" y="1" maskUnits="userSpaceOnUse" style="mask-type:luminance">
    <path fill="#fff" d="M1.924 1.924h43.39v43.391H1.925V1.925Z"/>
  </mask>
  <g mask="url(#c)">
    <mask id="d" width="45" height="45" x="1" y="1" maskUnits="userSpaceOnUse" style="mask-type:luminance">
      <path fill="#fff" d="M23.619 45.315c-5.792 0-11.246-2.255-15.339-6.356-4.102-4.093-6.356-9.547-6.356-15.34 0-5.792 2.254-11.246 6.356-15.338 4.093-4.103 9.547-6.357 15.339-6.357 5.793 0 11.246 2.254 15.34 6.357a21.548 21.548 0 0 1 6.356 15.338c0 5.793-2.255 11.247-6.356 15.34-4.094 4.101-9.547 6.356-15.34 6.356Zm0-42.09A20.264 20.264 0 0 0 9.199 9.2a20.264 20.264 0 0 0-5.974 14.42c0 5.445 2.124 10.57 5.974 14.42a20.268 20.268 0 0 0 14.42 5.974 20.27 20.27 0 0 0 14.42-5.974 20.272 20.272 0 0 0 5.975-14.42c0-5.447-2.125-10.57-5.975-14.42a20.268 20.268 0 0 0-14.42-5.975Z"/>
    </mask>
    <g mask="url(#d)">
      <path fill="#112241" d="M1.924 1.924h43.39v43.391H1.925V1.925Z"/>
    </g>
  </g>
  <mask id="e" width="37" height="17" x="5" y="16" maskUnits="userSpaceOnUse" style="mask-type:luminance">
    <path fill="#fff" d="M5.547 16.897H41.67v15.508H5.547V16.897Z"/>
  </mask>
  <g mask="url(#e)">
    <path fill="#112241" d="M40.545 28.79a17.23 17.23 0 0 1-2.024 4.4 20.29 20.29 0 0 1-2.446 3.097c-.118.13-.25.246-.376.367-.128.121-.252.245-.382.362l-.397.345-.198.172-.206.164-.411.328c-.139.107-.283.208-.424.312-.278.213-.575.4-.865.598l-.131.088a7.943 7.943 0 0 0-.149.09l-.33.197c-.23.145-.505.282-.802.44-.074.038-.149.08-.227.118l-.242.112-.512.236c-.36.142-.737.311-1.148.442-1.62.587-3.64.95-5.67.96-2.029-.01-4.05-.373-5.67-.96-.411-.131-.788-.3-1.148-.442l-.511-.236-.243-.112c-.079-.038-.153-.08-.228-.119-.296-.156-.57-.294-.802-.44l-.33-.197-.147-.089-.132-.088a20.217 20.217 0 0 1-3.08-2.465c-.993-.99-1.86-2.102-2.625-3.28a17.235 17.235 0 0 1-2.025-4.4c-.477-1.554-.697-3.185-.712-4.816.015-1.63.235-3.26.712-4.814a17.254 17.254 0 0 1 2.025-4.4 20.293 20.293 0 0 1 2.445-3.098c.119-.13.25-.245.376-.368.128-.119.252-.243.383-.36l.396-.345.199-.173.205-.163.411-.329c.139-.106.284-.207.424-.31.278-.214.575-.402.866-.6l.13-.087.149-.09.33-.196c.231-.146.506-.284.802-.441.075-.039.15-.08.228-.118.08-.036.16-.075.242-.113l.512-.236c.36-.14.737-.31 1.147-.441 1.62-.588 3.641-.95 5.67-.96 2.03.01 4.051.372 5.671.96.41.131.787.3 1.148.44.176.083.346.162.51.237l.244.113c.078.037.153.08.227.118.297.157.571.295.803.44l.33.198.147.089.132.087a20.222 20.222 0 0 1 3.078 2.465 20.05 20.05 0 0 1 2.627 3.28 17.25 17.25 0 0 1 2.024 4.401c.478 1.553.698 3.184.712 4.814-.014 1.631-.234 3.262-.712 4.816Zm1.117-4.827v-.002c-.015-1.665-.239-3.331-.724-4.92a17.46 17.46 0 0 0-2.071-4.495l-.428-.643-.31-.433c-.178-.266-.452-.592-.714-.927-.281-.319-.55-.648-.777-.873l-.369-.383s-.037-.038-.104-.102l-.276-.268c-.224-.229-.55-.503-.868-.784-.163-.136-.332-.266-.486-.392a55.788 55.788 0 0 1-.225-.178c-.075-.054-.145-.105-.21-.15l-.43-.312s-.037-.03-.099-.07l-.22-.148-.321-.214a3.954 3.954 0 0 0-.135-.09l-.15-.092-.338-.203c-.237-.15-.517-.29-.82-.452-.076-.039-.152-.082-.233-.121l-.248-.116c-.169-.077-.343-.159-.523-.242-.37-.145-.754-.317-1.174-.453-1.658-.602-3.728-.976-5.804-.983-2.077.007-4.146.381-5.805.983-.42.136-.805.309-1.174.453l-.522.243c-.084.04-.168.078-.249.115-.08.04-.157.082-.232.121-.304.162-.584.303-.821.452l-.338.203-.15.091a8.011 8.011 0 0 0-.135.091l-.321.214-.22.149a1.18 1.18 0 0 0-.098.069l-.43.311-.21.15-.225.18c-.155.125-.323.255-.487.39-.318.282-.644.556-.867.785a125.095 125.095 0 0 0-.381.37l-.368.383c-.227.225-.497.554-.778.873-.262.335-.535.662-.714.927l-.31.433-.428.643a17.46 17.46 0 0 0-2.071 4.495c-.485 1.589-.709 3.255-.724 4.92v.027c.015 1.665.239 3.331.724 4.92a17.452 17.452 0 0 0 2.071 4.496l.429.642s.123.175.309.434c.179.265.452.592.714.927.281.319.551.648.778.873l.368.383s.037.038.104.102l.277.268c.223.228.549.502.867.785.164.135.332.265.487.39l.225.18.21.15a3961.318 3961.318 0 0 1 .528.38l.22.148.321.215c.043.029.088.06.135.09l.15.091.338.203c.237.15.517.291.82.453.076.039.153.082.234.12l.248.116.523.243c.369.144.753.317 1.173.453 1.659.602 3.728.975 5.805.983 2.076-.008 4.146-.381 5.804-.984.42-.135.805-.308 1.175-.453l.522-.242.248-.116c.08-.038.157-.081.233-.12.303-.162.583-.303.82-.453l.338-.203c.052-.031.102-.06.15-.09l.135-.091.321-.215.22-.148a.988.988 0 0 0 .099-.07l.43-.31c.065-.047.135-.098.21-.15l.224-.18c.155-.125.324-.255.487-.39.319-.283.644-.557.868-.785l.276-.268c.067-.064.104-.102.104-.102l.369-.383c.226-.225.496-.554.777-.873.262-.335.536-.662.715-.927l.308-.434.429-.642a17.466 17.466 0 0 0 2.072-4.496c.484-1.589.708-3.255.724-4.92v-.025Z"/>
  </g>
  <path fill="#2E6EA6" fill-rule="evenodd" d="M33.748 19.904c-1.488-.34-1.488-.34-1.611-1.768-.346-3.602-3.315-6.317-6.904-6.317-2.693 0-5.172 1.595-6.315 4.06-.54 1.175-.665 1.612-1.809 1.155-.695-.276-1.349-.23-1.349-.23a2.495 2.495 0 0 0-2.492 2.495c0 .227.045.48.142.77.575 1.411.48 1.566-.887 2.352-1.407.82-2.248 2.26-2.248 3.856a4.494 4.494 0 0 0 4.488 4.489h17.949v-.001a5.49 5.49 0 0 0 5.485-5.484 5.481 5.481 0 0 0-4.449-5.377Z" clip-rule="evenodd"/>
  <mask id="f" width="33" height="24" x="7" y="9" maskUnits="userSpaceOnUse" style="mask-type:luminance">
    <path fill="#fff" d="M7.32 9.302h31.928v22.99H7.319V9.301Z"/>
  </mask>
  <g mask="url(#f)">
    <path fill="#fff" fill-rule="evenodd" d="M33.225 17.477c-.438-4.567-4.243-8.152-8.925-8.152-3.623 0-6.727 2.15-8.156 5.237a4.452 4.452 0 0 0-1.355-.23 4.506 4.506 0 0 0-4.506 4.504c0 .496.1.963.247 1.407-1.936 1.128-3.25 3.201-3.25 5.601a6.508 6.508 0 0 0 6.508 6.508v.001h18.021a7.507 7.507 0 0 0 7.508-7.51c0-3.662-2.623-6.703-6.092-7.366ZM31.809 30.35H13.788a4.511 4.511 0 0 1-4.505-4.505c0-1.603.844-3.05 2.256-3.873 1.373-.789 1.467-.945.892-2.36a2.455 2.455 0 0 1-.145-.776 2.506 2.506 0 0 1 2.503-2.502s.657-.047 1.355.23c1.148.458 1.273.02 1.816-1.16 1.147-2.474 3.637-4.076 6.34-4.076 3.604 0 6.584 2.725 6.93 6.342.125 1.433.125 1.433 1.619 1.776a5.502 5.502 0 0 1 4.466 5.398 5.512 5.512 0 0 1-5.506 5.506Z" clip-rule="evenodd"/>
  </g>
  <path fill="#fff" d="M12.208 27.067a.517.517 0 0 1-.153.369.504.504 0 0 1-.369.153.514.514 0 0 1-.369-.153.506.506 0 0 1-.153-.369.513.513 0 0 1 .153-.37.517.517 0 0 1 .57-.112.515.515 0 0 1 .281.282c.027.064.04.13.04.2Z"/>
  <path fill="#fff" fill-rule="evenodd" d="m15.402 21.293-.004.001a4.237 4.237 0 0 0-4.234 4.238.498.498 0 1 0 .997 0v-.002a3.241 3.241 0 0 1 3.24-3.24h.001a.499.499 0 0 0 0-.997Z" clip-rule="evenodd"/>
  <path fill="#fff" d="M13.895 18.723c0-.323.07-.613.21-.868a1.5 1.5 0 0 1 .59-.6c.252-.143.537-.215.856-.215.392 0 .728.105 1.006.314.28.206.468.489.563.845h-.884a.713.713 0 0 0-.283-.313.768.768 0 0 0-.41-.111.774.774 0 0 0-.604.26c-.153.171-.23.4-.23.688 0 .29.077.52.23.693.155.174.357.26.604.26a.733.733 0 0 0 .692-.425h.884a1.487 1.487 0 0 1-.562.846c-.278.204-.614.306-1.006.306-.32 0-.604-.07-.857-.214a1.508 1.508 0 0 1-.59-.593 1.773 1.773 0 0 1-.21-.873Zm4.697 1.037h1.056v.62H17.79v-3.302h.803v2.682Zm3.184.654c-.31 0-.593-.07-.853-.214a1.638 1.638 0 0 1-.616-.604 1.71 1.71 0 0 1-.226-.876c0-.322.075-.61.226-.869a1.62 1.62 0 0 1 .616-.6c.26-.146.544-.219.853-.219.31 0 .595.073.853.219.26.143.464.343.612.6.147.258.222.547.222.869 0 .324-.076.616-.226.876a1.62 1.62 0 0 1-.612.604 1.703 1.703 0 0 1-.85.214Zm0-.734a.809.809 0 0 0 .631-.264c.16-.176.241-.407.241-.696 0-.291-.08-.523-.241-.697a.809.809 0 0 0-.631-.264c-.266 0-.477.087-.635.26-.159.175-.237.408-.237.7 0 .291.078.525.237.7.158.175.369.26.635.26Zm3.104-2.602v1.974c0 .2.048.352.146.46.096.104.239.156.428.156.186 0 .33-.052.429-.157.101-.107.153-.26.153-.459v-1.974h.803v1.97c0 .297-.063.547-.187.75a1.217 1.217 0 0 1-.505.46 1.57 1.57 0 0 1-.708.156c-.26 0-.493-.05-.7-.153a1.141 1.141 0 0 1-.486-.459 1.5 1.5 0 0 1-.176-.754v-1.97h.803Zm3.938 0c.349 0 .654.07.914.207.26.138.461.332.605.581.142.25.214.539.214.865 0 .321-.072.608-.214.86a1.48 1.48 0 0 1-.609.582 1.92 1.92 0 0 1-.91.207h-1.236v-3.302h1.236Zm-.05 2.605c.303 0 .54-.082.708-.248.17-.166.256-.4.256-.704 0-.306-.086-.543-.256-.712-.169-.168-.405-.252-.708-.252h-.383v1.916h.383Zm-1.248 2.281v3.474h-.846v-2.081l-.776 2.08h-.681l-.785-2.088v2.089h-.845v-3.474h.998l.976 2.406.964-2.406h.995Zm.496 2.086c0-.283.053-.532.16-.746a1.2 1.2 0 0 1 .436-.493c.186-.117.393-.176.62-.176.196 0 .367.04.513.118.147.08.26.184.34.314v-.39h.846v2.758h-.846v-.39a.93.93 0 0 1-.348.31c-.145.08-.315.118-.509.118a1.15 1.15 0 0 1-.616-.172 1.212 1.212 0 0 1-.436-.501 1.67 1.67 0 0 1-.16-.75Zm2.07.004c0-.208-.06-.375-.177-.497a.572.572 0 0 0-.428-.184.577.577 0 0 0-.429.18c-.117.12-.176.286-.176.497 0 .212.059.38.176.505a.57.57 0 0 0 .429.184.57.57 0 0 0 .428-.184c.117-.122.176-.289.176-.501Zm3.055.668v.716h-.428c-.306 0-.547-.075-.72-.226-.17-.15-.256-.395-.256-.735V23.38H31.4v-.7h.337v-.673h.846v.673h.554v.7h-.554v1.11c0 .082.019.141.057.18.04.036.107.053.199.053h.302Zm3.138-.71c0 .08-.006.16-.016.245H34.35c.013.174.067.306.165.398.096.09.216.133.36.133.21 0 .357-.088.44-.267h.899a1.24 1.24 0 0 1-.7.83 1.46 1.46 0 0 1-.609.122c-.27 0-.511-.057-.723-.172a1.229 1.229 0 0 1-.497-.493 1.539 1.539 0 0 1-.176-.754c0-.285.058-.536.176-.75.116-.214.28-.378.493-.493.212-.117.454-.176.727-.176.268 0 .505.056.712.168.206.113.368.274.486.482.116.207.175.45.175.727Zm-.865-.226a.435.435 0 0 0-.15-.344.548.548 0 0 0-.37-.13c-.14 0-.26.042-.36.126a.542.542 0 0 0-.18.348h1.06Zm-21.878 4.591a.224.224 0 0 1-.016.08.328.328 0 0 1-.042.073.33.33 0 0 1-.057.065l-.061.061-.035.035-.038.038a.367.367 0 0 1-.03.034.09.09 0 0 0-.016.027h.318v.134h-.494v-.057a.265.265 0 0 1 .057-.169.418.418 0 0 1 .062-.069l.069-.069a.472.472 0 0 0 .084-.084.176.176 0 0 0 .026-.042.101.101 0 0 0 .012-.046c0-.03-.01-.051-.027-.065a.113.113 0 0 0-.065-.019.14.14 0 0 0-.057.012.263.263 0 0 0-.103.061l-.077-.111a.398.398 0 0 1 .24-.1c.044 0 .081.006.112.016.032.01.06.025.08.042.02.018.035.04.042.069a.24.24 0 0 1 .016.084Zm.646.176a.485.485 0 0 1-.073.287.222.222 0 0 1-.195.1.226.226 0 0 1-.195-.1.477.477 0 0 1-.072-.287c0-.061.005-.116.019-.165a.3.3 0 0 1 .138-.195.236.236 0 0 1 .11-.027c.084 0 .15.034.195.1a.489.489 0 0 1 .073.287Zm-.16 0a.599.599 0 0 0-.008-.1.358.358 0 0 0-.016-.08.093.093 0 0 0-.034-.05.07.07 0 0 0-.05-.019.067.067 0 0 0-.05.02.102.102 0 0 0-.03.049.507.507 0 0 0-.023.18.503.503 0 0 0 .023.18.127.127 0 0 0 .03.053.08.08 0 0 0 .05.015c.02 0 .037-.004.05-.015a.113.113 0 0 0 .034-.053.356.356 0 0 0 .016-.08.634.634 0 0 0 .007-.1Zm.723-.176a.224.224 0 0 1-.016.08.332.332 0 0 1-.042.073.333.333 0 0 1-.057.065l-.061.061-.035.035-.038.038a.367.367 0 0 1-.03.034.089.089 0 0 0-.016.027h.318v.134h-.494v-.057a.265.265 0 0 1 .057-.169.418.418 0 0 1 .062-.069l.068-.069.046-.042a.472.472 0 0 0 .039-.042.176.176 0 0 0 .026-.042.101.101 0 0 0 .012-.046c0-.03-.01-.051-.027-.065a.114.114 0 0 0-.065-.019.14.14 0 0 0-.057.012.271.271 0 0 0-.103.061l-.077-.111a.398.398 0 0 1 .24-.1c.044 0 .081.006.112.016.032.01.06.025.08.042.02.018.035.041.042.069a.24.24 0 0 1 .016.084Zm.321.563c-.021 0-.042-.003-.065-.005a.63.63 0 0 1-.061-.011.25.25 0 0 1-.092-.027l.03-.13.073.027a.41.41 0 0 0 .107.011c.048 0 .084-.008.107-.026a.098.098 0 0 0 .035-.077.097.097 0 0 0-.012-.05.083.083 0 0 0-.034-.03.175.175 0 0 0-.054-.016.236.236 0 0 0-.061-.007h-.061v-.127h.072a.202.202 0 0 0 .042-.003.22.22 0 0 0 .039-.016.107.107 0 0 0 .03-.026.087.087 0 0 0 .012-.046.058.058 0 0 0-.012-.035.066.066 0 0 0-.023-.023.062.062 0 0 0-.03-.015.082.082 0 0 0-.035-.008.228.228 0 0 0-.084.016.74.74 0 0 0-.073.034l-.053-.119a6.71 6.71 0 0 1 .038-.019.651.651 0 0 1 .111-.038.376.376 0 0 1 .176.008.19.19 0 0 1 .08.046c.02.018.036.04.046.065a.24.24 0 0 1 .016.084.16.16 0 0 1-.027.084.134.134 0 0 1-.065.061c.038.016.067.04.088.073a.18.18 0 0 1 .034.11.252.252 0 0 1-.019.097.167.167 0 0 1-.053.072.247.247 0 0 1-.092.05.51.51 0 0 1-.13.015Zm-2.024-1.81v.364h.204v-.03h-.17v-.141h.146v-.03h-.146v-.133h.17v-.03h-.204Zm.426.19c.063.01.09.032.09.075v.003c0 .045-.033.071-.082.071h-.004c-.049 0-.083-.03-.083-.094h-.034v.005c0 .075.042.119.119.119.073 0 .119-.038.119-.102v-.005c0-.057-.033-.088-.112-.1-.067-.008-.087-.031-.087-.07v-.004c0-.04.033-.064.078-.064h.003c.056 0 .08.03.08.099h.034v-.011c0-.075-.034-.117-.115-.117-.07 0-.115.036-.115.097v.005c0 .048.03.083.11.094Zm.352-.16h.092v-.03h-.219v.03h.093v.334h.034v-.334Zm.243.29h-.042v.042h.042v-.041Z"/>
</svg>
