<svg xmlns="http://www.w3.org/2000/svg" width="25" height="24" fill="none" viewBox="0 0 25 24">
  <path fill="#fff" fill-rule="evenodd" d="M12.903 2.21A.824.824 0 0 1 13.49 2c4.57.138 8.39 3.456 9.083 7.89a.244.244 0 0 1 0 .08.781.781 0 0 1-.197.576.812.812 0 0 1-.555.269l-7.68.506a.917.917 0 0 1-.693-.23.88.88 0 0 1-.293-.658l-.517-7.544v-.124a.794.794 0 0 1 .265-.555Zm-.527 11.084 6.656-.427.045.018c.286.005.558.12.757.322.199.202.308.473.303.753-.262 3.822-3.065 7.015-6.878 7.838-3.813.823-7.723-.923-9.595-4.284a8.215 8.215 0 0 1-1.023-3.136 5.954 5.954 0 0 1-.064-.987C2.59 9.327 5.483 5.82 9.532 4.96c.49-.092.982.152 1.196.595.053.08.095.167.126.257.076 1.172.155 2.333.233 3.488.062.913.124 1.822.184 2.732-.003.214.03.427.1.63.162.4.566.654 1.005.632Z" clip-rule="evenodd"/>
</svg>
