<svg xmlns="http://www.w3.org/2000/svg" width="24" height="24" fill="none" viewBox="0 0 24 24">
  <g clip-path="url(#a)">
    <path fill="#fff" d="M6.201 21H1.847V6.98h4.354V21ZM4.021 5.067C2.63 5.067 1.5 3.913 1.5 2.521a2.522 2.522 0 0 1 5.043 0c0 1.393-1.13 2.546-2.522 2.546ZM22.495 21h-4.344v-6.825c0-1.627-.032-3.713-2.263-3.713-2.264 0-2.61 1.768-2.61 3.596V21h-4.35V6.98h4.175v1.912h.061c.581-1.102 2.001-2.264 4.119-2.264 4.406 0 5.216 2.902 5.216 6.67V21h-.003Z"/>
  </g>
  <defs>
    <clipPath id="a">
      <path fill="#fff" d="M0 0h24v24H0z"/>
    </clipPath>
  </defs>
</svg>
