<svg xmlns="http://www.w3.org/2000/svg" width="25" height="24" fill="none" viewBox="0 0 25 24">
  <path fill="#fff" fill-rule="evenodd" d="M18.099 7.396v1.533c1.722.538 2.977 2.097 2.977 3.96v4.936c0 2.306-1.911 4.175-4.268 4.175H8.345c-2.357 0-4.269-1.87-4.269-4.175v-4.937c0-1.862 1.256-3.421 2.977-3.959V7.396C7.063 4.415 9.533 2 12.561 2c3.069 0 5.538 2.415 5.538 5.396ZM12.58 3.739c2.063 0 3.74 1.64 3.74 3.657v1.318H8.83V7.376c.01-2.007 1.688-3.637 3.75-3.637Zm.884 12.716a.88.88 0 0 1-.894.874.877.877 0 0 1-.884-.874v-2.206c0-.477.396-.865.884-.865.498 0 .894.388.894.865v2.206Z" clip-rule="evenodd"/>
</svg>
