<svg xmlns="http://www.w3.org/2000/svg" width="24" height="24" fill="none" viewBox="0 0 24 24">
  <path fill="#fff" d="M14.2 2h-2.4a.6.6 0 1 0 0 1.2h2.4a.6.6 0 1 0 0-1.2Z"/>
  <path fill="#fff" d="M16.8 0H7.2a2.403 2.403 0 0 0-2.4 2.4v19.2c0 1.323 1.077 2.4 2.4 2.4h9.6c1.323 0 2.4-1.077 2.4-2.4V2.4c0-1.323-1.077-2.4-2.4-2.4ZM18 21.6a1.2 1.2 0 0 1-1.2 1.2H7.2A1.2 1.2 0 0 1 6 21.6V2.4a1.2 1.2 0 0 1 1.2-1.2h9.6A1.2 1.2 0 0 1 18 2.4v19.2Z"/>
  <path fill="#fff" d="M12 22a1.2 1.2 0 1 0 0-2.4 1.2 1.2 0 0 0 0 2.4ZM9.8 3.2a.6.6 0 1 0 0-1.2.6.6 0 0 0 0 1.2Z"/>
</svg>
