<svg xmlns="http://www.w3.org/2000/svg" width="24" height="24" fill="none" viewBox="0 0 24 24">
  <path stroke="#fff" stroke-linecap="round" stroke-linejoin="round" stroke-width="1.5" d="M17.595 10.932a2.902 2.902 0 1 0 0-5.803m1.334 8.956c.478.033.954.1 1.422.206.651.127 1.434.394 1.713.978.177.374.177.81 0 1.184-.278.584-1.062.85-1.713.984M6.29 10.932a2.902 2.902 0 1 1 0-5.803m-1.334 8.956c-.479.033-.955.1-1.423.206-.65.127-1.434.394-1.711.978-.18.374-.18.81 0 1.184.276.584 1.06.85 1.711.984"/>
  <path stroke="#fff" stroke-linecap="round" stroke-linejoin="round" stroke-width="1.5" d="M11.938 14.71c3.246 0 6.02.49 6.02 2.457 0 1.965-2.755 2.475-6.02 2.475-3.248 0-6.021-.491-6.021-2.457 0-1.967 2.755-2.475 6.02-2.475Zm-.001-2.805a3.845 3.845 0 0 1-3.858-3.86 3.845 3.845 0 0 1 3.858-3.857 3.845 3.845 0 0 1 3.859 3.858 3.845 3.845 0 0 1-3.859 3.859Z" clip-rule="evenodd"/>
</svg>
